<svg xmlns="http://www.w3.org/2000/svg" width="1100" height="280" viewBox="0 0 1100 280"><style>text{font-family:Arial,sans-serif;fill:#172033}.t{font-size:18px;font-weight:bold}.s{font-size:14px}.b{fill:#eef4ff;stroke:#5b7cbd;stroke-width:2}.o{fill:#fff5df;stroke:#c78522;stroke-width:2}.a{stroke:#5b7cbd;stroke-width:3;marker-end:url(#m)}</style><defs><marker id="m" markerWidth="10" markerHeight="10" refX="8" refY="3" orient="auto"><path d="M0,0 L0,6 L9,3z" fill="#5b7cbd"/></marker></defs><text x="30" y="32" class="t">OmTrackVLA：依据官方 README 的信息流重绘</text><rect x="35" y="80" width="200" height="120" rx="16" class="b"/><text x="70" y="125" class="t">观测与指令</text><text x="65" y="155" class="s">单目视频历史</text><text x="65" y="178" class="s">自然语言目标</text><line x1="240" y1="140" x2="350" y2="140" class="a"/><rect x="355" y="80" width="250" height="120" rx="16" class="b"/><text x="404" y="125" class="t">视觉语言主干</text><text x="401" y="155" class="s">时序视觉 + 语言条件</text><line x1="610" y1="140" x2="720" y2="140" class="a"/><rect x="725" y="80" width="180" height="120" rx="16" class="o"/><text x="760" y="125" class="t">Waypoint 头</text><text x="752" y="155" class="s">短视野轨迹</text><line x1="910" y1="140" x2="1015" y2="140" class="a"/><rect x="1020" y="80" width="55" height="120" rx="12" class="o"/><text x="1031" y="125" class="s">外部</text><text x="1029" y="150" class="s">控制</text></svg>
